<?xml version="1.0" encoding="iso-8859-1"?>
<!-- Uploaded to: SVG Repo, www.svgrepo.com, Generator: SVG Repo Mixer Tools -->
<!DOCTYPE svg PUBLIC "-//W3C//DTD SVG 1.1//EN" "http://www.w3.org/Graphics/SVG/1.1/DTD/svg11.dtd">
<svg fill="#000000" version="1.1" id="Capa_1" xmlns="http://www.w3.org/2000/svg" xmlns:xlink="http://www.w3.org/1999/xlink" 
	 width="800px" height="800px" viewBox="0 0 31.987 31.986"
	 xml:space="preserve">
<g>
	<path d="M22.634,10.599l1.022,2.359l-1.297,0.134l-0.152-1.671L21.7,12.618l-1.89-0.88l-0.158-1.997c0,0,1.513-0.051,1.521,0.053
		c0.009,0.103,0.164,2.1,0.164,2.1l0.504-1.718L22.634,10.599z M19.396,11.289l-0.114-1.461l-1.39,2.312l0.517,1.159L19.396,11.289z
		 M20.366,18.757L19.29,17.03l-0.104-2.07l-0.82-0.021l-0.359,1.424l-0.477-0.09l0.217-1.096l0.496-1.785l-0.386-0.655l-1.024,0.105
		l-0.547,1.133l-0.197,1.903l0.078,0.63l0.285,0.769l0.123,0.012l1.226,0.484l0.716-0.785l0.077,1.986l-0.804-0.808l0.045,1.022
		l0.541,1.263l-0.623,0.996l0.173,2.042l1.696,0.001l-0.24-2.206l-0.493-0.123l-0.269,0.824l0.029-1.146l0.967,0.316l0.344,2.461
		l1.453-1.19l-1.386-1.799L20.366,18.757z M16.603,17.845l-0.437,0.664l0.344,2.73l1.17-0.121l-0.236-2.993L16.603,17.845z
		 M22.185,18.059l-1.354,0.061l-0.145,0.605l1.244,0.771l2.245-0.128l0.106-1.744l-1.805-1.115L22.185,18.059z M22.067,20.141
		l-0.66-0.485l-0.812,0.084l0.075,0.963l1.399,1.589l1.46-1.884l-0.438-0.44L22.067,20.141z M19.75,15.213l0.289,2.121l0.871,0.257
		l0.933-0.097l0.321-1.697l0.728,0.479l0.979,0.576l0.322-1.086l-0.158-2.223l-1.86,0.168l-0.785,1.871l-0.253-0.513l0.386-1.838
		l-0.551-0.259l-0.267,0.485l-0.463-0.098l0.188-0.887l-0.979-0.506l-0.779,1.507l0.443,1.006l1.088,0.282l-0.121,0.417
		L19.75,15.213z M9.336,13.257l0.151-1.671l0.508,1.197l1.892-0.88l0.156-1.996c0,0-1.513-0.052-1.521,0.053
		c-0.008,0.102-0.165,2.099-0.165,2.099l-0.502-1.718l-0.792,0.423L8.04,13.123L9.336,13.257z M14.557,9.418l0.703-1.523
		l0.077,1.299l2.076-0.197l0.816-1.828c0,0-1.409-0.555-1.452-0.46c-0.041,0.093-0.857,1.922-0.857,1.922l0.103-1.784l-0.888,0.132
		L13.381,8.86L14.557,9.418z M13.804,12.304l-1.39-2.312L12.3,11.453l0.988,2.01L13.804,12.304z M11.932,9.491l1.731-1.372
		l-1.199,0.06l-1.528,1.015L11.932,9.491z M19.764,9.491l0.996-0.298l-1.529-1.015l-1.199-0.06L19.764,9.491z M12.315,21.451
		l-0.239,2.205l1.696-0.001l0.173-2.042l-0.624-0.996l0.54-1.262l0.047-1.022l-0.804,0.808l0.078-1.988l0.715,0.787l1.225-0.484
		l-0.043-0.016l0.411-0.601l0.148-0.757l-0.148-1.977l-0.627-1.098l-1.024-0.105l-0.384,0.655l0.496,1.784l0.215,1.097l-0.476,0.09
		l-0.359-1.423l-0.82,0.021l-0.103,2.07l-1.077,1.726l0.338,1.873l-1.385,1.798l1.452,1.191l0.346-2.461l0.965-0.316l0.032,1.146
		l-0.269-0.825L12.315,21.451z M15.093,18.009l-0.842,0.281l-0.235,2.993l1.17,0.121l0.49-3.062L15.093,18.009z M11.01,18.889
		l-0.145-0.605l-1.354-0.061l-0.292-1.55l-1.806,1.115l0.107,1.744l2.246,0.128L11.01,18.889z M14.559,11.563l0.588,1.251
		l0.413-0.412L15.264,9.73l-1.739-0.324l-0.442,0.657l0.964,2.068L14.559,11.563z M16.366,9.653l-0.297,2.672l0.413,0.413
		l0.589-1.252l0.51,0.569l0.965-2.07l-0.44-0.655L16.366,9.653z M11.102,19.902l-0.813-0.084l-0.66,0.486L8.606,20.13l-0.439,0.44
		l1.46,1.885l1.4-1.59L11.102,19.902z M14.231,22.93l-0.13,0.885l-0.805,0.748l-0.008,0.668l2.201,0.035l-0.086-2.252L14.832,22.3
		L14.231,22.93z M16.864,22.3l-0.572,0.714l-0.086,2.254l2.203-0.037l-0.01-0.666l-0.804-0.748l-0.132-0.885L16.864,22.3z
		 M13.024,13.638l-0.777-1.507l-0.979,0.506l0.188,0.887l-0.463,0.099l-0.266-0.487l-0.551,0.261l0.385,1.838l-0.252,0.512
		l-0.786-1.871l-1.861-0.167l-0.159,2.222l0.324,1.086l0.979-0.574l0.727-0.48l0.322,1.697l0.933,0.097l0.87-0.257l0.288-2.121
		l-0.33-0.034l-0.12-0.417l1.086-0.28L13.024,13.638z M17.68,26.502L17.68,26.502c-0.114,0.02-0.285,0.023-0.586,0.025L17.06,26.53
		l0.104-0.817h-0.582l-0.111,0.871l-0.73,0.068l-0.189,0.019l-0.188-0.958h-0.588l0.198,1.014l-0.671,0.062
		c-0.104,0-0.2,0.003-0.286,0.006v-1.08h-1.135v1.175c0,0.463,0.149,0.727,0.355,0.875v0.829l5.383-0.596l-0.021-0.66l0.215-0.125
		v-1.498H17.68V26.502z M13.239,29.443L13.239,29.443c-0.049,0.209,0.017,0.496,0.059,0.639l0.065,0.23l4.983-0.555l0.242-0.076
		l0.013-0.242c0.013-0.075,0.026-0.228,0.024-0.682v-0.314l-5.387,0.599L13.239,29.443L13.239,29.443z M13.73,31.17
		c0.483,0.536,1.239,0.812,2.243,0.816h0.029c1.711,0,2.3-0.762,2.489-1.399l0.121-0.407l-5.252,0.578L13.73,31.17z M16.418,0
		h-1.041v5.527h1.041V0z M22.728,1.003l-0.964-0.392l-2.08,5.121l0.963,0.392L22.728,1.003z M27.471,3.798l-3.896,3.921l0.738,0.732
		l3.895-3.921L27.471,3.798z M31.077,8.937l-5.186,1.913l0.359,0.977l5.187-1.913L31.077,8.937z M26.506,14.672l-0.205,1.02
		l5.419,1.09l0.205-1.02L26.506,14.672z M12.3,6.125l-2.079-5.122L9.258,1.394l2.079,5.121L12.3,6.125z M8.408,8.109L4.512,4.188
		L3.774,4.921L7.67,8.842L8.408,8.109z M0.547,10.307l5.186,1.912l0.36-0.977L0.907,9.33L0.547,10.307z M0.061,16.152l0.205,1.021
		l5.419-1.09L5.48,15.062L0.061,16.152z"/>
</g>
</svg>